<svg width="43" height="43" viewBox="0 0 43 43" fill="none" xmlns="http://www.w3.org/2000/svg">
<path d="M21.5002 41.5048C32.5487 41.5048 41.5053 32.5482 41.5053 21.4997C41.5053 10.4512 32.5487 1.49463 21.5002 1.49463C10.4517 1.49463 1.49512 10.4512 1.49512 21.4997C1.49512 32.5482 10.4517 41.5048 21.5002 41.5048Z" fill="#BC2A8D"/>
<path d="M32.3426 21.668C32.3426 23.1965 32.3426 24.7334 32.3426 26.262C32.3426 28.8571 31.0829 30.6543 28.8237 31.8217C27.8998 32.3004 26.9004 32.5104 25.859 32.5104C22.9112 32.5104 19.9549 32.5608 17.0071 32.4936C14.6387 32.4432 12.7323 31.4018 11.4557 29.361C10.9266 28.5043 10.6663 27.5637 10.6579 26.5643C10.6579 23.3309 10.6411 20.0891 10.6579 16.8557C10.6747 14.6385 11.7581 13.0008 13.5973 11.8418C14.6891 11.1616 15.8985 10.8508 17.1834 10.8424C20.0557 10.8424 22.9196 10.8256 25.8002 10.8424C28.0174 10.8592 29.8567 11.7243 31.2172 13.5047C31.9647 14.4873 32.3342 15.6295 32.3342 16.8725C32.3426 18.4598 32.3426 20.0639 32.3426 21.668ZM30.7301 21.6848C30.7301 20.0807 30.7301 18.4598 30.7301 16.8557C30.7301 15.9823 30.4698 15.1844 29.9575 14.4957C28.958 13.1436 27.5723 12.4801 25.9178 12.4633C23.0036 12.4297 20.0893 12.4549 17.175 12.4549C16.268 12.4549 15.4114 12.6649 14.6303 13.1184C13.1186 13.9918 12.2788 15.2684 12.2872 17.0489C12.2956 20.1815 12.2872 23.3309 12.2872 26.4719C12.2872 27.3538 12.5475 28.16 13.0682 28.8571C14.0676 30.2092 15.4534 30.8643 17.1079 30.8811C20.0389 30.9147 22.97 30.8895 25.8926 30.8895C26.5561 30.8895 27.2028 30.7467 27.8243 30.4948C29.4704 29.8313 30.7889 28.2944 30.7385 26.2452C30.6965 24.725 30.7301 23.2049 30.7301 21.6848Z" fill="white"/>
<path d="M21.5005 26.2956C18.6702 26.2872 16.4111 24.0281 16.4195 21.2146C16.4279 18.4683 18.729 16.2343 21.5341 16.2427C24.3392 16.2511 26.6152 18.5187 26.6068 21.2986C26.6068 24.0617 24.3224 26.304 21.5005 26.2956ZM21.5425 17.8552C19.6193 17.8552 18.0656 19.3753 18.0488 21.2566C18.0488 23.1294 19.6025 24.6663 21.5005 24.6747C23.4238 24.6747 24.9943 23.1546 25.0027 21.2818C25.0027 19.4005 23.449 17.8552 21.5425 17.8552Z" fill="white"/>
<path d="M28.2779 15.8309C28.2779 16.4439 27.7908 16.9479 27.1945 16.9395C26.6067 16.9395 26.1279 16.4271 26.1363 15.8141C26.1363 15.2094 26.6234 14.7139 27.2113 14.7139C27.7992 14.7139 28.2779 15.2178 28.2779 15.8309Z" fill="white"/>
</svg>
