<svg width="180" height="50" viewBox="0 0 180 50" fill="none" xmlns="http://www.w3.org/2000/svg">
<g clip-path="url(#clip0_40:18)">
<path fill-rule="evenodd" clip-rule="evenodd" d="M9.86017 9.60001L4.93018 23.6H23.4702L25.2702 18.48H13.5002L15.1102 13.92H25.9302L27.4402 9.57999H9.86017V9.60001ZM63.1702 17.13H69.1702C76.2302 17.13 78.5302 15.07 80.8402 8.48999C81.1905 7.51341 81.4613 6.51016 81.6502 5.48999C82.2702 1.61999 80.2402 0.179993 75.0902 0.179993H62.3302L60.5402 5.29999H71.9302C73.9302 5.29999 74.5002 5.73999 74.3002 6.98999C74.2003 7.51341 74.0496 8.02584 73.8502 8.51999C72.7902 11.52 72.1402 11.98 69.5702 11.98H58.1902L54.1102 23.61H60.8802L63.1702 17.11V17.13ZM88.3802 16.82H93.6302C95.2802 16.82 95.8302 17.6 95.6302 18.82C95.191 20.4445 94.6533 22.0408 94.0202 23.6H100.79C101.537 21.7299 102.181 19.8204 102.72 17.88C103.03 15.88 101.87 14.98 99.3402 14.73L99.4102 14.48C103.75 13.58 104.89 11.95 106.57 7.17999C106.84 6.46148 107.038 5.71779 107.16 4.95999C107.75 1.30999 105.53 0.179993 100.52 0.179993H87.4602L85.6702 5.29999H97.6702C99.4302 5.29999 100.01 5.68002 99.8202 6.86002C99.7545 7.25684 99.6473 7.64563 99.5002 8.01999C98.5002 10.92 98.0702 11.67 95.4302 11.67H83.4302L79.2402 23.6H86.0002L88.3702 16.79L88.3802 16.82ZM109.53 9.60001L104.61 23.6H123.14L124.95 18.48H113.18L114.79 13.92H125.61L127.12 9.57999H109.53V9.60001ZM129.53 16.13C129.23 16.9297 129.008 17.757 128.87 18.6C128.11 23.34 131.39 23.94 137.52 23.94C142.52 23.94 145.94 23.5 147.96 21.94C149.98 20.38 151.47 15.82 151.69 14.45C152.13 11.73 150.51 10.89 143.02 9.67001C140.16 9.20001 139.1 8.83001 139.28 7.67001C139.51 6.24001 140 5.11002 144.12 5.11002C146.73 5.11002 147.55 5.27001 147.33 6.64001C147.276 6.93987 147.196 7.23433 147.09 7.51999H153.58C153.893 6.63777 154.16 5.73989 154.38 4.82999C155.09 0.399987 150.8 0 145.93 0C140.28 0 133.5 1.14999 132.28 8.70999C131.7 12.33 133.43 13.14 138.54 13.76C144.05 14.45 144.7 14.76 144.54 16.04C144.16 18.41 142.54 18.82 139.36 18.82C136.59 18.82 135.53 18.66 135.77 17.16C135.847 16.8202 135.947 16.4861 136.07 16.16L129.53 16.13ZM154.33 16.13C154.022 16.9279 153.797 17.7557 153.66 18.6C152.9 23.34 156.19 23.94 162.31 23.94C167.31 23.94 170.73 23.5 172.75 21.94C174.77 20.38 176.27 15.82 176.49 14.45C176.92 11.73 175.3 10.89 167.82 9.67001C164.95 9.20001 163.89 8.83001 164.07 7.67001C164.3 6.24001 164.79 5.11002 168.92 5.11002C171.52 5.11002 172.34 5.27001 172.12 6.64001C172.066 6.93987 171.986 7.23433 171.88 7.51999H178.37C178.687 6.63818 178.958 5.74026 179.18 4.82999C179.89 0.399987 175.59 0 170.72 0C165.07 0 158.29 1.14999 157.08 8.70999C156.49 12.33 158.23 13.14 163.33 13.76C168.84 14.45 169.49 14.76 169.33 16.04C168.95 18.41 167.33 18.82 164.15 18.82C161.38 18.82 160.32 18.66 160.56 17.16C160.642 16.8214 160.742 16.4875 160.86 16.16L154.33 16.13Z" fill="#1EA386"/>
<path d="M49.32 35.5899C49.658 34.7203 49.9222 33.8238 50.1099 32.9099C50.7199 29.1199 47.9999 27.9099 42.8099 27.9099C36.2099 27.9099 31.8099 28.9099 29.4299 35.7999C27.2599 42.0299 26.9799 43.0299 26.8599 43.7999C26.0399 48.8599 29.99 49.1699 35.32 49.1699C42.32 49.1699 45.32 47.6199 47.38 41.1699H41.2C40.25 44.2999 38.8599 44.3799 36.3699 44.3799C33.8799 44.3799 33.2299 43.7399 33.4599 42.2999C33.9623 40.4105 34.5802 38.5537 35.3099 36.7399C36.3599 33.7399 37.03 32.7399 40.45 32.7399C42.45 32.7399 43.7199 33.1299 43.5299 34.2899C43.4399 34.7245 43.3093 35.1497 43.14 35.5599L49.32 35.5899ZM61.23 28.1499H55.23L47.94 48.9099H63.32L65.0299 44.0899H55.64L61.23 28.1499ZM79.23 28.1499H73.23L65.9399 48.9099H71.9399L79.23 28.1499ZM83.13 28.1499L75.8399 48.9099H81.8399L86.8399 32.9899H87.1499L87.2 48.9899H92.39L103.65 32.9899H103.88L97.7 48.9099H103.7L111 28.1499H101.25L92.5899 41.1499H92.38L92.67 28.1499H83.13ZM122.45 45.3399L122.36 48.9099H128.48L128.93 28.1499H119.8L105.8 48.9099H112L114.38 45.3399H122.45ZM122.62 41.3399H117.07L122.99 32.3399H123L122.57 41.3399H122.62ZM146 32.9599H152L153.71 28.1499H135.61L133.91 32.9599H140L134.41 48.9099H140.41L146 32.9599ZM160.71 32.6899H170.9L172.5 28.1499H156.28L149 48.9099H165.44L167.04 44.3699H156.58L158.01 40.3699H167.61L168.95 36.5199H159.35L160.68 32.7299L160.71 32.6899Z" fill="#FBEB59" fill-opacity="0.88"/>
<path fill-rule="evenodd" clip-rule="evenodd" d="M13.1499 0.219971H41.4499L38.9499 5.33997H11.3799L13.1499 0.219971Z" fill="#279B82"/>
<path fill-rule="evenodd" clip-rule="evenodd" d="M9.49 48.72H0L50.71 0.219971H59.42L9.49 48.72Z" fill="#279B82"/>
<path fill-rule="evenodd" clip-rule="evenodd" d="M43.7898 23.63H51.7397L47.3098 13.47L41.7598 18.89L43.7598 23.63H43.7898ZM44.6598 7.38998L41.5398 0.209961H33.7598L39.1097 12.72L44.6598 7.40997V7.38998Z" fill="#279B82"/>
<path fill-rule="evenodd" clip-rule="evenodd" d="M112.81 0.219971H131.13L129.33 5.33997H111.03L112.81 0.219971Z" fill="#279B82"/>
</g>
<defs>
<clipPath id="clip0_40:18">
<rect width="179.27" height="49.19" fill="white"/>
</clipPath>
</defs>
</svg>
