<svg width="100" height="100" viewBox="0 0 100 100" fill="none" xmlns="http://www.w3.org/2000/svg">
<path d="M59.5263 14.5C55.2924 7.16666 44.7076 7.16667 40.4737 14.5L14.493 59.5C10.2591 66.8333 15.5514 76 24.0192 76H75.9808C84.4486 76 89.7409 66.8333 85.507 59.5L59.5263 14.5Z" stroke="#FBEB59" stroke-width="2"/>
<g clip-path="url(#clip0_211_20)">
<path d="M64.845 56.9808L60.4606 61.3946L45.8472 45.2153L48.7694 42.2742L64.845 56.9808Z" fill="#FBEB59"/>
<path d="M45.8473 34.9193L44.3862 36.3898H42.9251L40.0028 39.3309V40.8015L39.2712 41.5368H37.8101L34.1572 45.2153L39.2712 50.3622L42.9251 46.6858V45.2153L43.6556 44.48H45.1168L48.039 41.5368V40.0662C48.7696 34.9193 56.8069 35.6546 56.8069 35.6546C53.154 31.9782 45.8473 34.9193 45.8473 34.9193Z" fill="#FBEB59"/>
</g>
<defs>
<clipPath id="clip0_211_20">
<rect width="31" height="39" fill="#FBEB59" transform="translate(34 32)"/>
</clipPath>
</defs>
</svg>
