<svg width="100" height="100" viewBox="0 0 100 100" fill="none" xmlns="http://www.w3.org/2000/svg">
<path d="M59.5263 14.5C55.2924 7.16666 44.7076 7.16667 40.4737 14.5L14.493 59.5C10.2591 66.8333 15.5514 76 24.0192 76H75.9808C84.4486 76 89.7409 66.8333 85.507 59.5L59.5263 14.5Z" stroke="#FBEB59" stroke-opacity="0.88" stroke-width="2"/>
<g clip-path="url(#clip0_211_21)">
<path d="M44.2949 53.952C44.1046 53.225 43.7533 52.5508 43.2674 51.98C42.8576 51.5072 42.4139 51.0653 41.9399 50.6578C41.5652 50.361 41.2142 50.0351 40.8899 49.6831C40.6549 49.4163 40.474 49.1057 40.3574 48.7689L40.2749 48.5196C40.2749 48.4365 40.2749 48.3383 40.2749 48.2476C40.2561 48.0567 40.2561 47.8643 40.2749 47.6734C40.2812 47.3143 40.3577 46.96 40.4999 46.6307C41.0869 45.7972 41.7498 45.0206 42.4799 44.3111C42.9037 43.8138 43.2341 43.2428 43.4549 42.6263C43.6594 42.0084 43.7109 41.3496 43.6049 40.7071C43.5943 40.6087 43.553 40.5163 43.487 40.443C43.421 40.3697 43.3336 40.3193 43.2374 40.2991C43.1768 40.2847 43.1139 40.2827 43.0525 40.2933C42.9911 40.3038 42.9324 40.3267 42.88 40.3605C42.8275 40.3943 42.7823 40.4384 42.7471 40.4902C42.7119 40.542 42.6873 40.6003 42.6749 40.6618V40.7071C42.4856 41.63 41.9477 42.4428 41.1749 42.9738C40.1723 43.6168 39.2678 44.4032 38.4899 45.3085C38.0508 45.9047 37.7625 46.5997 37.6499 47.3334C37.5961 47.6908 37.576 48.0526 37.5899 48.4138C37.5788 48.595 37.5788 48.7767 37.5899 48.9578L37.7024 49.5169C37.8944 50.2433 38.2455 50.9172 38.7299 51.4889C39.1416 51.9576 39.5852 52.3969 40.0574 52.8036C40.4246 53.1065 40.7727 53.432 41.0999 53.7783C41.3375 54.0432 41.5187 54.3543 41.6324 54.6925C41.6324 54.7756 41.6849 54.8587 41.7149 54.9418C41.7449 55.0249 41.7149 55.1307 41.7149 55.2214C41.7337 55.4098 41.7337 55.5996 41.7149 55.788C41.6935 56.1519 41.5964 56.5071 41.4299 56.8307C40.8469 57.6697 40.1838 58.4491 39.4499 59.1578C39.0611 59.6685 38.7641 60.2439 38.5724 60.8578C38.3677 61.4756 38.3162 62.1345 38.4224 62.7769C38.4361 62.8882 38.4884 62.991 38.57 63.0673C38.6516 63.1435 38.7573 63.1883 38.8685 63.1938C38.9797 63.1992 39.0892 63.1649 39.1777 63.0969C39.2662 63.0289 39.3281 62.9317 39.3524 62.8223V62.7769C39.5425 61.8543 40.0802 61.0419 40.8524 60.5103C41.8541 59.872 42.7564 59.0878 43.5299 58.1831C43.9723 57.5824 44.2632 56.8823 44.3774 56.1431C44.4312 55.7857 44.4513 55.4239 44.4374 55.0627C44.4374 54.8814 44.4374 54.7 44.4374 54.5111L44.2949 53.952Z" fill="#FBEB59" fill-opacity="0.88"/>
<path d="M52.8074 52.4409C52.6505 51.6478 52.3312 50.8964 51.8699 50.2346C51.4646 49.6549 51.0104 49.1114 50.5124 48.6102C49.7357 47.9689 49.1579 47.1167 48.8474 46.1546L48.7499 45.8222V45.452C48.7264 45.2007 48.7264 44.9477 48.7499 44.6964C48.7719 44.2283 48.876 43.7679 49.0574 43.3364C49.4099 42.46 50.2799 41.6137 51.1049 40.4729C51.5292 39.8832 51.8419 39.2198 52.0274 38.516C52.1857 37.8293 52.2061 37.1178 52.0874 36.4231C52.0678 36.3133 52.0104 36.2139 51.9254 36.1423C51.8404 36.0708 51.7332 36.0316 51.6224 36.0316C51.5116 36.0316 51.4044 36.0708 51.3194 36.1423C51.2344 36.2139 51.1771 36.3133 51.1574 36.4231C50.9977 37.5225 50.4682 38.5334 49.6574 39.2866C49.2599 39.6871 48.7949 40.0422 48.2999 40.5257C47.7557 41.0165 47.288 41.5871 46.9124 42.2182C46.5116 42.9007 46.2561 43.6597 46.1624 44.4471C46.1148 44.8279 46.0973 45.2119 46.1099 45.5955V46.1697L46.2074 46.7591C46.3643 47.5521 46.6836 48.3035 47.1449 48.9653C47.5503 49.5451 48.0045 50.0885 48.5024 50.5897C49.2799 51.2288 49.8558 52.082 50.1599 53.0453L50.2499 53.3777L50.2874 53.7404C50.3615 54.4541 50.2611 55.1752 49.9949 55.8409C49.6424 56.7173 48.7724 57.5635 47.9474 58.6969C47.523 59.2892 47.2103 59.9551 47.0249 60.6613C46.8527 61.3502 46.817 62.0665 46.9199 62.7693C46.9344 62.8843 46.99 62.99 47.0763 63.0666C47.1626 63.1432 47.2736 63.1855 47.3887 63.1855C47.5037 63.1855 47.6148 63.1432 47.7011 63.0666C47.7874 62.99 47.843 62.8843 47.8574 62.7693C48.0189 61.6705 48.5481 60.6602 49.3574 59.9057C49.7549 59.5129 50.2199 59.1502 50.7074 58.6742C51.2499 58.1817 51.7174 57.6114 52.0949 56.9817C52.5083 56.2914 52.7645 55.5172 52.8449 54.7151C52.8985 54.3323 52.9186 53.9454 52.9049 53.5591V52.9849L52.8074 52.4409Z" fill="#FBEB59" fill-opacity="0.88"/>
<path d="M61.3725 54.5035L61.26 53.952C61.0697 53.2249 60.7185 52.5507 60.2325 51.98C59.8266 51.5035 59.3826 51.0613 58.905 50.6578C58.532 50.359 58.1811 50.0332 57.855 49.6831C57.6201 49.4163 57.4392 49.1057 57.3225 48.7689L57.24 48.5195C57.24 48.4364 57.24 48.3382 57.2025 48.2475C57.1837 48.0566 57.1837 47.8643 57.2025 47.6733C57.2239 47.3095 57.321 46.9542 57.4875 46.6307C58.0681 45.7965 58.726 45.0198 59.4525 44.3111C59.8739 43.8133 60.2018 43.2424 60.42 42.6262C60.6245 42.0084 60.676 41.3496 60.57 40.7071C60.5594 40.6087 60.5181 40.5162 60.4521 40.4429C60.3861 40.3696 60.2987 40.3193 60.2025 40.2991C60.0802 40.2721 59.9523 40.2952 59.8468 40.3632C59.7413 40.4312 59.667 40.5386 59.64 40.6618V40.7071C59.4507 41.63 58.9129 42.4427 58.14 42.9738C57.1537 43.6177 56.2646 44.4015 55.5 45.3009C55.0443 45.8951 54.7404 46.5931 54.615 47.3333C54.5612 47.6908 54.5411 48.0525 54.555 48.4138C54.555 48.5951 54.555 48.7764 54.5925 48.9578L54.705 49.5169C54.897 50.2433 55.2481 50.9171 55.7325 51.4889C56.1443 51.9576 56.5878 52.3968 57.06 52.8035C57.4272 53.1064 57.7754 53.4319 58.1025 53.7782C58.3428 54.0411 58.5244 54.3529 58.635 54.6924C58.635 54.7755 58.6875 54.8587 58.7175 54.9418C58.7475 55.0249 58.7175 55.1307 58.755 55.2213C58.7737 55.4097 58.7737 55.5996 58.755 55.788C58.7403 56.1517 58.6536 56.5087 58.5 56.8382C57.9177 57.6755 57.2572 58.4548 56.5275 59.1653C56.1053 59.6666 55.7751 60.2397 55.5525 60.8578C55.3516 61.4763 55.3002 62.1343 55.4025 62.7769C55.4142 62.8749 55.4559 62.9668 55.5217 63.0399C55.5876 63.113 55.6744 63.1636 55.77 63.1849C55.8931 63.21 56.0211 63.1864 56.1273 63.1188C56.2335 63.0512 56.3097 62.945 56.34 62.8222V62.7769C56.5331 61.8555 57.07 61.0441 57.84 60.5102C58.8417 59.872 59.744 59.0878 60.5175 58.1831C60.9599 57.5823 61.2508 56.8822 61.365 56.1431C61.4188 55.7857 61.4389 55.4239 61.425 55.0627C61.4188 54.8754 61.4013 54.6887 61.3725 54.5035Z" fill="#FBEB59" fill-opacity="0.88"/>
</g>
<defs>
<clipPath id="clip0_211_21">
<rect width="27" height="34" fill="white" transform="translate(36 36)"/>
</clipPath>
</defs>
</svg>
