<svg width="100" height="100" viewBox="0 0 100 100" fill="none" xmlns="http://www.w3.org/2000/svg">
<path d="M59.5263 14.5C55.2924 7.16666 44.7076 7.16667 40.4737 14.5L14.493 59.5C10.2591 66.8333 15.5514 76 24.0192 76H75.9808C84.4486 76 89.7409 66.8333 85.507 59.5L59.5263 14.5Z" stroke="#FBEB59" stroke-opacity="0.88" stroke-width="2"/>
<g clip-path="url(#clip0_211_22)">
<path d="M51.4529 34.0563L43.2949 38.6736L46.7134 43.7524C47.6314 43.162 48.6941 42.8297 49.788 42.7913C50.8819 42.7528 51.9658 43.0094 52.9238 43.5339L56.7093 35.0976L51.4529 34.0563Z" fill="#FBEB59" fill-opacity="0.88"/>
<path d="M49.9998 54.8125C48.9771 54.8133 47.9709 54.5565 47.076 54.0661L43.2905 62.5024L48.5469 63.5437L56.7046 58.9264L53.2862 53.8477C52.3081 54.4775 51.1664 54.8126 49.9998 54.8125Z" fill="#FBEB59" fill-opacity="0.88"/>
<path d="M53.5367 46.1693C53.269 45.8168 52.9496 45.506 52.5889 45.2473C52.4805 45.1695 52.3684 45.0968 52.2528 45.029C51.5506 44.6132 50.7452 44.3998 49.9271 44.4131C49.1091 44.4263 48.3111 44.6655 47.6229 45.1038C47.527 45.1646 47.4344 45.2295 47.3437 45.2971C46.9879 45.5622 46.6743 45.8785 46.4131 46.2356C46.3346 46.343 46.2611 46.454 46.1927 46.5685C45.7729 47.2641 45.5576 48.0619 45.5709 48.8721C45.5842 49.6824 45.8258 50.4728 46.2683 51.1544C46.3296 51.2494 46.3952 51.3411 46.4635 51.431C46.7311 51.7834 47.0505 52.094 47.411 52.3527C47.5194 52.4305 47.6315 52.5032 47.7471 52.571C48.4493 52.9868 49.2547 53.2001 50.0727 53.1869C50.8907 53.1737 51.6887 52.9345 52.3768 52.4962C52.4728 52.4355 52.5655 52.3705 52.6562 52.3028C53.012 52.0377 53.3257 51.7213 53.5868 51.3643C53.6653 51.2568 53.7388 51.1459 53.8072 51.0314C54.2271 50.3358 54.4424 49.538 54.4291 48.7277C54.4157 47.9175 54.1742 47.127 53.7316 46.4454C53.6704 46.3505 53.6049 46.259 53.5367 46.1693Z" fill="#FBEB59" fill-opacity="0.88"/>
<path d="M60.2235 42.1588L55.0957 45.5446C55.6919 46.4538 56.0273 47.5065 56.0662 48.59C56.105 49.6734 55.8459 50.747 55.3164 51.6959L63.8335 55.4453L64.8851 50.239L60.2235 42.1588Z" fill="#FBEB59" fill-opacity="0.88"/>
<path d="M35.1147 47.361L39.7764 55.4413L44.9041 52.0553C44.308 51.1461 43.9726 50.0935 43.9337 49.01C43.8948 47.9265 44.154 46.853 44.6835 45.9041L36.1661 42.1547L35.1147 47.361Z" fill="#FBEB59" fill-opacity="0.88"/>
</g>
<defs>
<clipPath id="clip0_211_22">
<rect width="42" height="52" fill="white" transform="translate(29 28)"/>
</clipPath>
</defs>
</svg>
