<svg width="100" height="100" viewBox="0 0 100 100" fill="none" xmlns="http://www.w3.org/2000/svg">
<path d="M59.5263 14.5C55.2924 7.16666 44.7076 7.16667 40.4737 14.5L14.493 59.5C10.2591 66.8333 15.5514 76 24.0192 76H75.9808C84.4486 76 89.7409 66.8333 85.507 59.5L59.5263 14.5Z" stroke="#FBEB59" stroke-opacity="0.88" stroke-width="2"/>
<g clip-path="url(#clip0_211_23)">
<path d="M50.5 63.2C43.0561 63.2 37 57.3846 37 50.2392C37 46.1592 38.9494 42.3866 42.346 39.9032L44.6464 42.8136C43.4628 43.6512 42.4961 44.7628 41.8276 46.055C41.159 47.3471 40.8081 48.7821 40.8043 50.2392C40.8043 55.3718 45.154 59.547 50.5 59.547C55.846 59.547 60.1957 55.3718 60.1957 50.2392C60.1911 48.783 59.8397 47.3491 59.1712 46.058C58.5027 44.7669 57.5364 43.6561 56.3536 42.819L58.654 39.9086C62.0506 42.3838 64 46.1483 64 50.2446C64 57.3846 57.9439 63.2 50.5 63.2Z" fill="#FBEB59" fill-opacity="0.88"/>
<path d="M52.401 36H48.5967V49.0451H52.401V36Z" fill="#FBEB59" fill-opacity="0.88"/>
</g>
<defs>
<clipPath id="clip0_211_23">
<rect width="27" height="34" fill="white" transform="translate(37 36)"/>
</clipPath>
</defs>
</svg>
