<svg width="100" height="100" viewBox="0 0 100 100" fill="none" xmlns="http://www.w3.org/2000/svg">
<path d="M59.5263 14.5C55.2924 7.16666 44.7076 7.16667 40.4737 14.5L14.493 59.5C10.2591 66.8333 15.5514 76 24.0192 76H75.9808C84.4486 76 89.7409 66.8333 85.507 59.5L59.5263 14.5Z" stroke="#FBEB59" stroke-opacity="0.88" stroke-width="2"/>
<g clip-path="url(#clip0_211_24)">
<path d="M54.3508 50.5652V35.8257C54.3508 34.2746 53.6309 32.8941 52.5099 32.0086C51.7033 31.3674 50.6854 30.9841 49.5789 30.9841C48.4725 30.9841 47.4546 31.3674 46.6457 32.0086C45.527 32.8947 44.8071 34.2746 44.8071 35.8257V50.4404C42.9346 51.8803 41.7251 54.1618 41.7251 56.7267C41.7251 61.0846 45.206 64.6153 49.4993 64.6153C53.7914 64.6153 57.2723 61.0846 57.2723 56.7267C57.2735 54.2349 56.1331 52.0111 54.3508 50.5652ZM49.5737 62.7136C46.3271 62.7136 43.696 60.0446 43.696 56.7517C43.696 55.449 44.1078 54.2432 44.8077 53.2632C45.295 52.578 45.9217 52.0045 46.6463 51.582V49.3903V39.6434V36.2744V35.4893C46.836 34.0232 48.0707 32.8923 49.5666 32.8923C51.1932 32.8923 52.5099 34.2307 52.5099 35.8816V39.6434V49.4562V51.5891C53.2373 52.0158 53.8646 52.5947 54.3508 53.2817C55.0419 54.2599 55.4501 55.4568 55.4501 56.7523C55.4501 60.0446 52.8168 62.7136 49.5737 62.7136Z" fill="#FBEB59" fill-opacity="0.88"/>
<path d="M53.4096 56.7416C53.4096 58.8971 51.687 60.6437 49.5638 60.6437C47.4394 60.6437 45.7168 58.8971 45.7168 56.7416C45.7168 54.907 46.965 53.3702 48.6454 52.9524V49.7629V42.9863H50.4828V49.7629V52.9524C52.1626 53.3708 53.4096 54.907 53.4096 56.7416Z" fill="#FBEB59" fill-opacity="0.88"/>
</g>
<defs>
<clipPath id="clip0_211_24">
<rect width="41" height="52" fill="white" transform="translate(29 27)"/>
</clipPath>
</defs>
</svg>
