<svg width="100" height="100" viewBox="0 0 100 100" fill="none" xmlns="http://www.w3.org/2000/svg">
<path d="M59.5263 14.5C55.2924 7.16666 44.7076 7.16667 40.4737 14.5L14.493 59.5C10.2591 66.8333 15.5514 76 24.0192 76H75.9808C84.4486 76 89.7409 66.8333 85.507 59.5L59.5263 14.5Z" stroke="#FBEB59" stroke-opacity="0.88" stroke-width="2"/>
<g clip-path="url(#clip0_211_25)">
<path d="M49.5 34.85C47.6839 34.85 39.5312 45.3728 39.5312 50.575C39.5312 56.1851 44.0036 60.75 49.5 60.75C54.9964 60.75 59.4688 56.1851 59.4688 50.575C59.4688 45.3728 51.3161 34.85 49.5 34.85ZM49.5 57.05C46.0019 57.05 43.1562 54.1446 43.1562 50.575C43.1562 50.0635 43.5623 49.65 44.0625 49.65C44.5627 49.65 44.9688 50.0635 44.9688 50.575C44.9688 53.1252 47.0015 55.2 49.5 55.2C50.0002 55.2 50.4062 55.6135 50.4062 56.125C50.4062 56.6365 50.0002 57.05 49.5 57.05Z" fill="#FBEB59" fill-opacity="0.88"/>
</g>
<defs>
<clipPath id="clip0_211_25">
<rect width="29" height="37" fill="white" transform="translate(35 33)"/>
</clipPath>
</defs>
</svg>
