<svg width="40" height="40" viewBox="0 0 40 40" fill="none" xmlns="http://www.w3.org/2000/svg">
<g opacity="1" clip-path="url(#clip0_40:46)">
<path fill-rule="evenodd" clip-rule="evenodd" d="M19.6129 0C30.4452 0 39.2258 8.78061 39.2258 19.6129C39.2258 30.4452 30.4452 39.2258 19.6129 39.2258C8.78061 39.2258 0 30.4452 0 19.6129C0 8.78061 8.78061 0 19.6129 0Z" fill="#23B7EC"/>
<path d="M28.4403 12.5269L25.6478 26.6045C25.6478 26.6045 25.2571 27.5806 24.1837 27.1125L17.7406 22.1725L17.7107 22.1579C18.581 21.3765 25.3298 15.3087 25.6248 15.0337C26.0814 14.6077 25.7979 14.3541 25.2678 14.6759L15.2989 21.0064L11.4529 19.7124C11.4529 19.7124 10.8477 19.4971 10.7895 19.029C10.7305 18.5602 11.4729 18.3066 11.4729 18.3066L27.1517 12.1561C27.1517 12.1561 28.4403 11.5899 28.4403 12.5269Z" fill="#FEFEFE"/>
</g>
<defs>
<linearGradient id="paint0_linear_40:46" x1="5.19665" y1="6.31444" x2="36.3291" y2="29.8775" gradientUnits="userSpaceOnUse">
<stop stop-color="#28AAE0"/>
<stop offset="1" stop-color="#23B7EC"/>
</linearGradient>
<clipPath id="clip0_40:46">
<rect width="39.2258" height="39.2258" fill="white"/>
</clipPath>
</defs>
</svg>
