<svg width="43" height="43" viewBox="0 0 43 43" fill="none" xmlns="http://www.w3.org/2000/svg">
<circle cx="21.1641" cy="22.5078" r="17.1328" fill="white"/>
<path d="M21.5002 1.65137C10.5377 1.65137 1.65137 10.5377 1.65137 21.5002C1.65137 32.4626 10.5377 41.349 21.5002 41.349C32.4626 41.349 41.349 32.4626 41.349 21.5002C41.349 10.5377 32.4626 1.65137 21.5002 1.65137ZM32.1676 29.0325C31.3205 29.5622 27.8784 29.72 27.045 29.1146C26.5879 28.7826 26.17 28.3673 25.7731 27.9717C25.4953 27.6952 25.1801 27.561 24.9415 27.2609C24.7467 27.0153 24.6129 26.7255 24.4078 26.483C24.0617 26.0762 23.5289 25.7301 23.1075 26.2272C22.4728 26.9749 23.2073 28.4434 22.361 29.0019C22.0772 29.1894 21.7908 29.2436 21.4361 29.2169L20.6505 29.2526C20.1891 29.2617 19.4581 29.266 18.9331 29.1714C18.3474 29.0656 17.8637 28.7457 17.3339 28.5109C16.3286 28.065 15.3709 27.4574 14.6421 26.6159C12.6585 24.324 9.99423 21.1721 8.95922 18.2906C8.74637 17.6985 8.18393 16.5259 8.71713 16.0181C9.44211 15.4913 13.0004 15.343 13.5555 16.1574C13.7808 16.4885 13.9231 16.9727 14.0827 17.3481C14.2813 17.8159 14.3888 18.2567 14.6993 18.6708C14.9741 19.038 15.1766 19.4074 15.389 19.8098C15.6277 20.2618 15.853 20.6952 16.1432 21.111C16.3402 21.394 16.8609 21.9568 17.1898 21.9985C17.9931 22.1013 17.9432 20.1495 17.8834 19.6731C17.8262 19.2139 17.8116 18.7267 17.8267 18.261C17.8396 17.8637 17.8753 17.3038 17.6401 16.9796C17.2565 16.4507 16.4021 16.8463 16.3354 16.1355C16.4765 15.9338 16.4468 15.7549 17.3889 15.4445C18.1311 15.2007 18.6106 15.2084 19.0999 15.2475C20.0975 15.3275 21.1553 15.0575 22.1185 15.3808C23.0387 15.6909 22.8964 16.9985 22.8654 17.782C22.8237 18.8514 22.8684 19.8954 22.8654 20.9812C22.8641 21.4752 22.8443 21.9564 23.4472 21.916C24.0122 21.8786 24.0698 21.403 24.3395 21.0108C24.7144 20.4639 25.0588 19.9092 25.4407 19.3644C25.9554 18.6278 26.1111 17.8 26.5957 17.0454C26.769 16.7758 26.9182 16.2013 27.1852 15.988C27.3873 15.8259 27.7713 15.9106 28.016 15.9106H28.5977C29.0428 15.9106 29.4969 15.9072 29.9544 15.9231C30.6132 15.9459 31.351 15.7945 32.0042 15.8869C34.8229 16.2847 28.4614 22.3103 28.7925 23.3861C29.0213 24.1292 30.4725 24.9595 30.9963 25.568C31.6916 26.3785 33.8321 27.9897 32.1676 29.0325Z" fill="#4C75A3"/>
</svg>
