<svg width="40" height="40" viewBox="0 0 40 40" fill="none" xmlns="http://www.w3.org/2000/svg">
<g opacity="1" clip-path="url(#clip0_40:51)">
<path d="M19.8385 39.2258C30.6704 39.2258 39.4514 30.4448 39.4514 19.6129C39.4514 8.78102 30.6704 0 19.8385 0C9.00661 0 0.225586 8.78102 0.225586 19.6129C0.225586 30.4448 9.00661 39.2258 19.8385 39.2258Z" fill="#25D366"/>
<path fill-rule="evenodd" clip-rule="evenodd" d="M20.4851 30.5246H20.4803C18.5284 30.524 16.6105 30.0342 14.907 29.1051L8.72461 30.7269L10.3791 24.6835C9.35851 22.9148 8.82153 20.9086 8.82235 18.8531C8.82496 12.4229 14.0567 7.19141 20.4849 7.19141C23.6048 7.19275 26.533 8.40733 28.7348 10.6117C30.9367 12.8161 32.1486 15.7462 32.1474 18.8623C32.1449 25.2911 26.9152 30.522 20.4851 30.5246ZM15.1935 26.9938L15.5474 27.2038C17.0357 28.0871 18.7417 28.5544 20.4812 28.555H20.4851C25.8277 28.555 30.1761 24.2065 30.1783 18.8617C30.1793 16.2715 29.172 13.8362 27.3419 12.0039C25.5118 10.1717 23.078 9.1621 20.4888 9.1612C15.142 9.1612 10.7936 13.5093 10.7915 18.8538C10.7907 20.6854 11.3032 22.4691 12.2735 24.0124L12.504 24.3792L11.5248 27.9562L15.1935 26.9938ZM25.9614 21.3732C26.1646 21.4714 26.3019 21.5378 26.3605 21.6356C26.4333 21.7571 26.4333 22.3406 26.1906 23.0213C25.9477 23.702 24.7835 24.3233 24.2236 24.4069C23.7216 24.482 23.0862 24.5133 22.3882 24.2914C21.965 24.1571 21.4222 23.9779 20.727 23.6776C17.9951 22.498 16.1489 19.8502 15.8 19.3498C15.7755 19.3147 15.7585 19.2902 15.7489 19.2775L15.7466 19.2744C15.5924 19.0686 14.559 17.6899 14.559 16.263C14.559 14.9207 15.2184 14.2172 15.5219 13.8933C15.5427 13.8712 15.5618 13.8507 15.5789 13.832C15.8461 13.5403 16.1617 13.4673 16.356 13.4673C16.5502 13.4673 16.7447 13.4691 16.9146 13.4777C16.9355 13.4787 16.9573 13.4786 16.9798 13.4784C17.1496 13.4774 17.3613 13.4762 17.5702 13.9779C17.6505 14.1709 17.7681 14.4572 17.8921 14.7591C18.1428 15.3695 18.4199 16.044 18.4686 16.1416C18.5415 16.2875 18.5901 16.4576 18.4929 16.6521C18.4784 16.6813 18.4649 16.7088 18.452 16.7351C18.379 16.8841 18.3254 16.9936 18.2015 17.1383C18.1529 17.1951 18.1025 17.2563 18.0522 17.3176C17.9519 17.4397 17.8517 17.5618 17.7644 17.6488C17.6185 17.7941 17.4667 17.9517 17.6366 18.2434C17.8066 18.5352 18.3915 19.4894 19.2577 20.2622C20.189 21.0928 20.9984 21.4439 21.4086 21.6218C21.4887 21.6566 21.5536 21.6847 21.6012 21.7086C21.8925 21.8544 22.0624 21.83 22.2325 21.6356C22.4025 21.4411 22.961 20.7846 23.1551 20.493C23.3494 20.2014 23.5437 20.2499 23.8108 20.3471C24.078 20.4445 25.5106 21.1493 25.8021 21.2952C25.8589 21.3237 25.9121 21.3494 25.9614 21.3732Z" fill="#FDFDFD"/>
</g>
<defs>
<clipPath id="clip0_40:51">
<rect width="39.2258" height="39.2258" fill="white" transform="translate(0.225586)"/>
</clipPath>
</defs>
</svg>
